<svg width="281" height="94" viewBox="0 0 281 94" fill="none" xmlns="http://www.w3.org/2000/svg">
<rect x="29" y="2" width="250" height="50" rx="15" fill="#E4407D" stroke="white" stroke-width="3"/>
<path d="M78.8828 27.9688L72.8828 20H76.6328L80.3828 24.9922L84.1328 20H87.8828L81.8828 27.9453V35H78.8828V27.9688ZM84.0391 35L91.5391 19.25L99.0391 35H95.6641L91.5391 26.375L87.4141 35H84.0391ZM117.789 35H99.7891V32H117.789C118.211 32 118.562 31.8594 118.844 31.5781C119.141 31.2812 119.289 30.9219 119.289 30.5C119.289 30.0781 119.141 29.7266 118.844 29.4453C118.562 29.1484 118.211 29 117.789 29H111.789C110.539 29 109.477 28.5625 108.602 27.6875C107.727 26.8125 107.289 25.75 107.289 24.5C107.289 23.25 107.727 22.1875 108.602 21.3125C109.477 20.4375 110.539 20 111.789 20H120.789V23H111.789C111.367 23 111.008 23.1484 110.711 23.4453C110.43 23.7266 110.289 24.0781 110.289 24.5C110.289 24.9219 110.43 25.2812 110.711 25.5781C111.008 25.8594 111.367 26 111.789 26H117.789C119.039 26 120.102 26.4375 120.977 27.3125C121.852 28.1875 122.289 29.25 122.289 30.5C122.289 31.75 121.852 32.8125 120.977 33.6875C120.102 34.5625 119.039 35 117.789 35ZM138.836 29H130.586V26H138.836V29ZM138.836 20V23H126.836V32H138.836V35H123.836V20H138.836ZM151.867 35L146.922 26H152.172C152.594 26 152.945 25.8594 153.227 25.5781C153.523 25.2812 153.672 24.9219 153.672 24.5C153.672 24.0781 153.523 23.7266 153.227 23.4453C152.945 23.1484 152.594 23 152.172 23H144.672V35H141.672V20H152.172C153.422 20 154.484 20.4375 155.359 21.3125C156.234 22.1875 156.672 23.25 156.672 24.5C156.672 25.75 156.234 26.8125 155.359 27.6875C154.484 28.5625 153.422 29 152.172 29H151.516L154.844 35H151.867ZM177.672 27.9688L171.672 20H175.422L179.172 24.9922L182.922 20H186.672L180.672 27.9453V35H177.672V27.9688ZM188.828 20H191.828V35C191.828 36.25 191.391 37.3125 190.516 38.1875C189.641 39.0625 188.578 39.5 187.328 39.5C186.078 39.5 185.016 39.0625 184.141 38.1875C183.266 37.3125 182.828 36.25 182.828 35H185.828C185.828 35.4219 185.969 35.7734 186.25 36.0547C186.547 36.3516 186.906 36.5 187.328 36.5C187.75 36.5 188.102 36.3516 188.383 36.0547C188.68 35.7734 188.828 35.4219 188.828 35V20ZM198.812 20H201.812V35C201.812 36.25 201.375 37.3125 200.5 38.1875C199.625 39.0625 198.562 39.5 197.312 39.5C196.062 39.5 195 39.0625 194.125 38.1875C193.25 37.3125 192.812 36.25 192.812 35H195.812C195.812 35.4219 195.953 35.7734 196.234 36.0547C196.531 36.3516 196.891 36.5 197.312 36.5C197.734 36.5 198.086 36.3516 198.367 36.0547C198.664 35.7734 198.812 35.4219 198.812 35V20ZM211.047 35C208.969 35 207.195 34.2734 205.727 32.8203C204.273 31.3516 203.547 29.5781 203.547 27.5C203.547 25.4219 204.273 23.6562 205.727 22.2031C207.195 20.7344 208.969 20 211.047 20C213.125 20 214.891 20.7344 216.344 22.2031C217.812 23.6562 218.547 25.4219 218.547 27.5C218.547 29.5781 217.812 31.3516 216.344 32.8203C214.891 34.2734 213.125 35 211.047 35ZM211.047 32C212.297 32 213.359 31.5625 214.234 30.6875C215.109 29.8125 215.547 28.75 215.547 27.5C215.547 26.25 215.109 25.1875 214.234 24.3125C213.359 23.4375 212.297 23 211.047 23C209.797 23 208.734 23.4375 207.859 24.3125C206.984 25.1875 206.547 26.25 206.547 27.5C206.547 28.75 206.984 29.8125 207.859 30.6875C208.734 31.5625 209.797 32 211.047 32ZM220.117 27.5V20H223.117V27.5C223.117 28.75 223.555 29.8125 224.43 30.6875C225.305 31.5625 226.367 32 227.617 32C228.867 32 229.93 31.5625 230.805 30.6875C231.68 29.8125 232.117 28.75 232.117 27.5V20H235.117V27.5C235.117 29.5781 234.383 31.3516 232.914 32.8203C231.461 34.2734 229.695 35 227.617 35C225.539 35 223.766 34.2734 222.297 32.8203C220.844 31.3516 220.117 29.5781 220.117 27.5Z" fill="white"/>
<path d="M8.74288 90.6333L39.2311 68.7026L22.4025 67.5239L13.2324 53.3292L8.74288 90.6333Z" fill="#E4407D" stroke="white" stroke-width="3"/>
</svg>
