<svg width="285" height="80" viewBox="0 0 285 80" fill="none" xmlns="http://www.w3.org/2000/svg">
<path d="M282 3L247 16.6196L263.001 21.9647L268.334 38L282 3Z" fill="#2B9CB8" stroke="white" stroke-width="3"/>
<rect x="2" y="28" width="250" height="50" rx="15" fill="#2B9CB8" stroke="white" stroke-width="3"/>
<path d="M51.8828 53.9688L45.8828 46H49.6328L53.3828 50.9922L57.1328 46H60.8828L54.8828 53.9453V61H51.8828V53.9688ZM57.0391 61L64.5391 45.25L72.0391 61H68.6641L64.5391 52.375L60.4141 61H57.0391ZM90.7891 61H72.7891V58H90.7891C91.2109 58 91.5625 57.8594 91.8438 57.5781C92.1406 57.2812 92.2891 56.9219 92.2891 56.5C92.2891 56.0781 92.1406 55.7266 91.8438 55.4453C91.5625 55.1484 91.2109 55 90.7891 55H84.7891C83.5391 55 82.4766 54.5625 81.6016 53.6875C80.7266 52.8125 80.2891 51.75 80.2891 50.5C80.2891 49.25 80.7266 48.1875 81.6016 47.3125C82.4766 46.4375 83.5391 46 84.7891 46H93.7891V49H84.7891C84.3672 49 84.0078 49.1484 83.7109 49.4453C83.4297 49.7266 83.2891 50.0781 83.2891 50.5C83.2891 50.9219 83.4297 51.2812 83.7109 51.5781C84.0078 51.8594 84.3672 52 84.7891 52H90.7891C92.0391 52 93.1016 52.4375 93.9766 53.3125C94.8516 54.1875 95.2891 55.25 95.2891 56.5C95.2891 57.75 94.8516 58.8125 93.9766 59.6875C93.1016 60.5625 92.0391 61 90.7891 61ZM111.836 55H103.586V52H111.836V55ZM111.836 46V49H99.8359V58H111.836V61H96.8359V46H111.836ZM124.867 61L119.922 52H125.172C125.594 52 125.945 51.8594 126.227 51.5781C126.523 51.2812 126.672 50.9219 126.672 50.5C126.672 50.0781 126.523 49.7266 126.227 49.4453C125.945 49.1484 125.594 49 125.172 49H117.672V61H114.672V46H125.172C126.422 46 127.484 46.4375 128.359 47.3125C129.234 48.1875 129.672 49.25 129.672 50.5C129.672 51.75 129.234 52.8125 128.359 53.6875C127.484 54.5625 126.422 55 125.172 55H124.516L127.844 61H124.867ZM150.672 53.9688L144.672 46H148.422L152.172 50.9922L155.922 46H159.672L153.672 53.9453V61H150.672V53.9688ZM161.828 46H164.828V61C164.828 62.25 164.391 63.3125 163.516 64.1875C162.641 65.0625 161.578 65.5 160.328 65.5C159.078 65.5 158.016 65.0625 157.141 64.1875C156.266 63.3125 155.828 62.25 155.828 61H158.828C158.828 61.4219 158.969 61.7734 159.25 62.0547C159.547 62.3516 159.906 62.5 160.328 62.5C160.75 62.5 161.102 62.3516 161.383 62.0547C161.68 61.7734 161.828 61.4219 161.828 61V46ZM171.812 46H174.812V61C174.812 62.25 174.375 63.3125 173.5 64.1875C172.625 65.0625 171.562 65.5 170.312 65.5C169.062 65.5 168 65.0625 167.125 64.1875C166.25 63.3125 165.812 62.25 165.812 61H168.812C168.812 61.4219 168.953 61.7734 169.234 62.0547C169.531 62.3516 169.891 62.5 170.312 62.5C170.734 62.5 171.086 62.3516 171.367 62.0547C171.664 61.7734 171.812 61.4219 171.812 61V46ZM184.047 61C181.969 61 180.195 60.2734 178.727 58.8203C177.273 57.3516 176.547 55.5781 176.547 53.5C176.547 51.4219 177.273 49.6562 178.727 48.2031C180.195 46.7344 181.969 46 184.047 46C186.125 46 187.891 46.7344 189.344 48.2031C190.812 49.6562 191.547 51.4219 191.547 53.5C191.547 55.5781 190.812 57.3516 189.344 58.8203C187.891 60.2734 186.125 61 184.047 61ZM184.047 58C185.297 58 186.359 57.5625 187.234 56.6875C188.109 55.8125 188.547 54.75 188.547 53.5C188.547 52.25 188.109 51.1875 187.234 50.3125C186.359 49.4375 185.297 49 184.047 49C182.797 49 181.734 49.4375 180.859 50.3125C179.984 51.1875 179.547 52.25 179.547 53.5C179.547 54.75 179.984 55.8125 180.859 56.6875C181.734 57.5625 182.797 58 184.047 58ZM193.117 53.5V46H196.117V53.5C196.117 54.75 196.555 55.8125 197.43 56.6875C198.305 57.5625 199.367 58 200.617 58C201.867 58 202.93 57.5625 203.805 56.6875C204.68 55.8125 205.117 54.75 205.117 53.5V46H208.117V53.5C208.117 55.5781 207.383 57.3516 205.914 58.8203C204.461 60.2734 202.695 61 200.617 61C198.539 61 196.766 60.2734 195.297 58.8203C193.844 57.3516 193.117 55.5781 193.117 53.5Z" fill="white"/>
</svg>
