<svg width="283" height="90" viewBox="0 0 283 90" fill="none" xmlns="http://www.w3.org/2000/svg">
<rect x="2" y="2" width="250" height="50" rx="15" fill="#2B9CB8" stroke="white" stroke-width="3"/>
<path d="M44.8828 26.9688L38.8828 19H42.6328L46.3828 23.9922L50.1328 19H53.8828L47.8828 26.9453V34H44.8828V26.9688ZM50.0391 34L57.5391 18.25L65.0391 34H61.6641L57.5391 25.375L53.4141 34H50.0391ZM83.7891 34H65.7891V31H83.7891C84.2109 31 84.5625 30.8594 84.8438 30.5781C85.1406 30.2812 85.2891 29.9219 85.2891 29.5C85.2891 29.0781 85.1406 28.7266 84.8438 28.4453C84.5625 28.1484 84.2109 28 83.7891 28H77.7891C76.5391 28 75.4766 27.5625 74.6016 26.6875C73.7266 25.8125 73.2891 24.75 73.2891 23.5C73.2891 22.25 73.7266 21.1875 74.6016 20.3125C75.4766 19.4375 76.5391 19 77.7891 19H86.7891V22H77.7891C77.3672 22 77.0078 22.1484 76.7109 22.4453C76.4297 22.7266 76.2891 23.0781 76.2891 23.5C76.2891 23.9219 76.4297 24.2812 76.7109 24.5781C77.0078 24.8594 77.3672 25 77.7891 25H83.7891C85.0391 25 86.1016 25.4375 86.9766 26.3125C87.8516 27.1875 88.2891 28.25 88.2891 29.5C88.2891 30.75 87.8516 31.8125 86.9766 32.6875C86.1016 33.5625 85.0391 34 83.7891 34ZM104.836 28H96.5859V25H104.836V28ZM104.836 19V22H92.8359V31H104.836V34H89.8359V19H104.836ZM117.867 34L112.922 25H118.172C118.594 25 118.945 24.8594 119.227 24.5781C119.523 24.2812 119.672 23.9219 119.672 23.5C119.672 23.0781 119.523 22.7266 119.227 22.4453C118.945 22.1484 118.594 22 118.172 22H110.672V34H107.672V19H118.172C119.422 19 120.484 19.4375 121.359 20.3125C122.234 21.1875 122.672 22.25 122.672 23.5C122.672 24.75 122.234 25.8125 121.359 26.6875C120.484 27.5625 119.422 28 118.172 28H117.516L120.844 34H117.867ZM143.672 26.9688L137.672 19H141.422L145.172 23.9922L148.922 19H152.672L146.672 26.9453V34H143.672V26.9688ZM154.828 19H157.828V34C157.828 35.25 157.391 36.3125 156.516 37.1875C155.641 38.0625 154.578 38.5 153.328 38.5C152.078 38.5 151.016 38.0625 150.141 37.1875C149.266 36.3125 148.828 35.25 148.828 34H151.828C151.828 34.4219 151.969 34.7734 152.25 35.0547C152.547 35.3516 152.906 35.5 153.328 35.5C153.75 35.5 154.102 35.3516 154.383 35.0547C154.68 34.7734 154.828 34.4219 154.828 34V19ZM164.812 19H167.812V34C167.812 35.25 167.375 36.3125 166.5 37.1875C165.625 38.0625 164.562 38.5 163.312 38.5C162.062 38.5 161 38.0625 160.125 37.1875C159.25 36.3125 158.812 35.25 158.812 34H161.812C161.812 34.4219 161.953 34.7734 162.234 35.0547C162.531 35.3516 162.891 35.5 163.312 35.5C163.734 35.5 164.086 35.3516 164.367 35.0547C164.664 34.7734 164.812 34.4219 164.812 34V19ZM177.047 34C174.969 34 173.195 33.2734 171.727 31.8203C170.273 30.3516 169.547 28.5781 169.547 26.5C169.547 24.4219 170.273 22.6562 171.727 21.2031C173.195 19.7344 174.969 19 177.047 19C179.125 19 180.891 19.7344 182.344 21.2031C183.812 22.6562 184.547 24.4219 184.547 26.5C184.547 28.5781 183.812 30.3516 182.344 31.8203C180.891 33.2734 179.125 34 177.047 34ZM177.047 31C178.297 31 179.359 30.5625 180.234 29.6875C181.109 28.8125 181.547 27.75 181.547 26.5C181.547 25.25 181.109 24.1875 180.234 23.3125C179.359 22.4375 178.297 22 177.047 22C175.797 22 174.734 22.4375 173.859 23.3125C172.984 24.1875 172.547 25.25 172.547 26.5C172.547 27.75 172.984 28.8125 173.859 29.6875C174.734 30.5625 175.797 31 177.047 31ZM186.117 26.5V19H189.117V26.5C189.117 27.75 189.555 28.8125 190.43 29.6875C191.305 30.5625 192.367 31 193.617 31C194.867 31 195.93 30.5625 196.805 29.6875C197.68 28.8125 198.117 27.75 198.117 26.5V19H201.117V26.5C201.117 28.5781 200.383 30.3516 198.914 31.8203C197.461 33.2734 195.695 34 193.617 34C191.539 34 189.766 33.2734 188.297 31.8203C186.844 30.3516 186.117 28.5781 186.117 26.5Z" fill="white"/>
<path d="M275.108 85.9589L269.686 48.7957L260.888 63.1898L244.065 64.7906L275.108 85.9589Z" fill="#2B9CB8" stroke="white" stroke-width="3"/>
</svg>
