<svg width="154" height="117" viewBox="0 0 154 117" fill="none" xmlns="http://www.w3.org/2000/svg">
<g id="Patter">
<path id="Vector" d="M9.84 40.6202C9.84 41.5933 9.55145 42.5445 9.01083 43.3536C8.47022 44.1627 7.70182 44.7933 6.8028 45.1656C5.90379 45.538 4.91454 45.6355 3.96016 45.4457C3.00577 45.2558 2.12911 44.7872 1.44104 44.0991C0.752961 43.411 0.284378 42.5345 0.0945387 41.5801C-0.0953006 40.6257 0.00213149 39.6364 0.374515 38.7374C0.746898 37.8384 1.37751 37.0699 2.18659 36.5293C2.99568 35.9887 3.94692 35.7002 4.92 35.7002C6.22487 35.7002 7.47629 36.2186 8.39897 37.1412C9.32165 38.0639 9.84 39.3154 9.84 40.6202Z" fill="#2B9CB8"/>
<path id="Vector_2" d="M45.7201 40.6202C45.7221 41.5957 45.4346 42.5498 44.8941 43.3618C44.3536 44.1739 43.5843 44.8073 42.6837 45.182C41.783 45.5567 40.7914 45.6558 39.8345 45.4667C38.8775 45.2776 37.9981 44.8088 37.3076 44.1198C36.6171 43.4307 36.1466 42.5523 35.9556 41.5957C35.7645 40.6391 35.8616 39.6473 36.2344 38.7458C36.6073 37.8444 37.2392 37.0739 38.0501 36.5317C38.8611 35.9896 39.8146 35.7002 40.7901 35.7002C42.0959 35.7002 43.3483 36.2182 44.2726 37.1406C45.1969 38.063 45.7175 39.3145 45.7201 40.6202Z" fill="#2B9CB8"/>
<path id="Vector_3" d="M9.84 76.3102C9.84 77.2833 9.55145 78.2345 9.01083 79.0436C8.47022 79.8527 7.70182 80.4833 6.8028 80.8557C5.90379 81.2281 4.91454 81.3255 3.96016 81.1356C3.00577 80.9458 2.12911 80.4773 1.44104 79.7892C0.752961 79.1011 0.284378 78.2244 0.0945387 77.27C-0.0953006 76.3156 0.00213149 75.3264 0.374515 74.4274C0.746898 73.5284 1.37751 72.76 2.18659 72.2194C2.99568 71.6787 3.94692 71.3901 4.92 71.3901C6.22487 71.3901 7.47629 71.9085 8.39897 72.8312C9.32165 73.7539 9.84 75.0053 9.84 76.3102Z" fill="#2B9CB8"/>
<path id="Vector_4" d="M45.7201 76.3102C45.7221 77.2857 45.4346 78.2398 44.8941 79.0519C44.3536 79.8639 43.5843 80.4974 42.6837 80.8721C41.783 81.2467 40.7914 81.3457 39.8345 81.1566C38.8775 80.9675 37.9981 80.4989 37.3076 79.8098C36.6171 79.1207 36.1466 78.2422 35.9556 77.2856C35.7645 76.329 35.8616 75.3373 36.2344 74.4359C36.6073 73.5345 37.2392 72.7638 38.0501 72.2217C38.8611 71.6795 39.8146 71.3901 40.7901 71.3901C42.0959 71.3901 43.3483 71.9082 44.2726 72.8306C45.1969 73.753 45.7175 75.0044 45.7201 76.3102Z" fill="#2B9CB8"/>
<path id="Vector_5" d="M9.84 112C9.84 112.973 9.55145 113.924 9.01083 114.734C8.47022 115.543 7.70182 116.173 6.8028 116.546C5.90379 116.918 4.91454 117.015 3.96016 116.826C3.00577 116.636 2.12911 116.167 1.44104 115.479C0.752961 114.791 0.284378 113.914 0.0945387 112.96C-0.0953006 112.006 0.00213149 111.016 0.374515 110.117C0.746898 109.218 1.37751 108.45 2.18659 107.909C2.99568 107.369 3.94692 107.08 4.92 107.08C6.22405 107.083 7.47394 107.602 8.39605 108.524C9.31816 109.446 9.83736 110.696 9.84 112Z" fill="#2B9CB8"/>
<path id="Vector_6" d="M45.7201 112C45.7221 112.975 45.4346 113.93 44.8941 114.742C44.3536 115.554 43.5843 116.187 42.6837 116.562C41.783 116.937 40.7914 117.036 39.8345 116.847C38.8775 116.657 37.9981 116.189 37.3076 115.5C36.6171 114.811 36.1466 113.932 35.9556 112.976C35.7645 112.019 35.8616 111.027 36.2344 110.126C36.6073 109.224 37.2392 108.454 38.0501 107.912C38.8611 107.369 39.8146 107.08 40.7901 107.08C42.0959 107.08 43.3483 107.598 44.2726 108.521C45.1969 109.443 45.7175 110.694 45.7201 112Z" fill="#2B9CB8"/>
<path id="Vector_7" d="M81.84 40.6202C81.84 41.5933 81.5514 42.5445 81.0108 43.3536C80.4702 44.1627 79.7018 44.7933 78.8028 45.1656C77.9038 45.538 76.9145 45.6355 75.9602 45.4457C75.0058 45.2558 74.1291 44.7872 73.441 44.0991C72.753 43.411 72.2844 42.5345 72.0945 41.5801C71.9047 40.6257 72.0021 39.6364 72.3745 38.7374C72.7469 37.8384 73.3775 37.0699 74.1866 36.5293C74.9957 35.9887 75.9469 35.7002 76.92 35.7002C77.5661 35.7002 78.2059 35.8275 78.8028 36.0747C79.3997 36.322 79.9421 36.6844 80.399 37.1412C80.8558 37.5981 81.2182 38.1405 81.4655 38.7374C81.7127 39.3343 81.84 39.9741 81.84 40.6202Z" fill="#2B9CB8"/>
<path id="Vector_8" d="M117.72 40.6202C117.722 41.5957 117.435 42.5498 116.894 43.3618C116.354 44.1739 115.584 44.8073 114.684 45.182C113.783 45.5567 112.791 45.6558 111.834 45.4667C110.877 45.2776 109.998 44.8088 109.308 44.1198C108.617 43.4307 108.147 42.5523 107.956 41.5957C107.765 40.6391 107.862 39.6473 108.234 38.7458C108.607 37.8444 109.239 37.0739 110.05 36.5317C110.861 35.9896 111.815 35.7002 112.79 35.7002C114.096 35.7002 115.348 36.2182 116.273 37.1406C117.197 38.063 117.717 39.3145 117.72 40.6202Z" fill="#2B9CB8"/>
<path id="Vector_9" d="M81.84 76.3102C81.84 77.2833 81.5514 78.2345 81.0108 79.0436C80.4702 79.8527 79.7018 80.4833 78.8028 80.8557C77.9038 81.2281 76.9145 81.3255 75.9602 81.1356C75.0058 80.9458 74.1291 80.4773 73.441 79.7892C72.753 79.1011 72.2844 78.2244 72.0945 77.27C71.9047 76.3156 72.0021 75.3264 72.3745 74.4274C72.7469 73.5284 73.3775 72.76 74.1866 72.2194C74.9957 71.6787 75.9469 71.3901 76.92 71.3901C77.5661 71.3901 78.2059 71.5174 78.8028 71.7646C79.3997 72.0119 79.9421 72.3743 80.399 72.8312C80.8558 73.288 81.2182 73.8304 81.4655 74.4274C81.7127 75.0243 81.84 75.6641 81.84 76.3102Z" fill="#2B9CB8"/>
<path id="Vector_10" d="M117.72 76.3102C117.722 77.2857 117.435 78.2398 116.894 79.0519C116.354 79.8639 115.584 80.4974 114.684 80.8721C113.783 81.2467 112.791 81.3457 111.834 81.1566C110.877 80.9675 109.998 80.4989 109.308 79.8098C108.617 79.1207 108.147 78.2422 107.956 77.2856C107.765 76.329 107.862 75.3373 108.234 74.4359C108.607 73.5345 109.239 72.7638 110.05 72.2217C110.861 71.6795 111.815 71.3901 112.79 71.3901C114.096 71.3901 115.348 71.9082 116.273 72.8306C117.197 73.753 117.717 75.0044 117.72 76.3102Z" fill="#2B9CB8"/>
<path id="Vector_11" d="M153.41 40.6202C153.412 41.5962 153.124 42.5507 152.583 43.3629C152.042 44.1752 151.273 44.8086 150.371 45.183C149.47 45.5574 148.478 45.6559 147.521 45.466C146.563 45.276 145.684 44.8063 144.994 44.1162C144.304 43.4261 143.834 42.5467 143.644 41.5895C143.454 40.6322 143.553 39.6401 143.927 38.7389C144.302 37.8377 144.935 37.0678 145.747 36.5269C146.56 35.9859 147.514 35.6982 148.49 35.7002C149.795 35.7002 151.046 36.2186 151.969 37.1412C152.892 38.0639 153.41 39.3154 153.41 40.6202Z" fill="#2B9CB8"/>
<path id="Vector_12" d="M153.41 76.3102C153.412 77.2861 153.124 78.2406 152.583 79.0529C152.042 79.8651 151.273 80.4986 150.371 80.8729C149.47 81.2473 148.478 81.3458 147.521 81.1559C146.563 80.966 145.684 80.4962 144.994 79.8062C144.304 79.1161 143.834 78.2368 143.644 77.2796C143.454 76.3223 143.553 75.3302 143.927 74.429C144.302 73.5277 144.935 72.7579 145.747 72.2169C146.56 71.676 147.514 71.3882 148.49 71.3901C149.795 71.3901 151.046 71.9085 151.969 72.8312C152.892 73.7539 153.41 75.0053 153.41 76.3102Z" fill="#2B9CB8"/>
<path id="Vector_13" d="M81.84 112C81.84 112.973 81.5514 113.924 81.0108 114.734C80.4702 115.543 79.7018 116.173 78.8028 116.546C77.9038 116.918 76.9145 117.015 75.9602 116.826C75.0058 116.636 74.1291 116.167 73.441 115.479C72.753 114.791 72.2844 113.914 72.0945 112.96C71.9047 112.006 72.0021 111.016 72.3745 110.117C72.7469 109.218 73.3775 108.45 74.1866 107.909C74.9957 107.369 75.9469 107.08 76.92 107.08C78.2241 107.083 79.4739 107.602 80.396 108.524C81.3182 109.446 81.8374 110.696 81.84 112Z" fill="#2B9CB8"/>
<path id="Vector_14" d="M117.72 112C117.722 112.975 117.435 113.93 116.894 114.742C116.354 115.554 115.584 116.187 114.684 116.562C113.783 116.937 112.791 117.036 111.834 116.847C110.877 116.657 109.998 116.189 109.308 115.5C108.617 114.811 108.147 113.932 107.956 112.976C107.765 112.019 107.862 111.027 108.234 110.126C108.607 109.224 109.239 108.454 110.05 107.912C110.861 107.369 111.815 107.08 112.79 107.08C114.096 107.08 115.348 107.598 116.273 108.521C117.197 109.443 117.717 110.694 117.72 112Z" fill="#2B9CB8"/>
<path id="Vector_15" d="M9.93008 4.93005C9.9281 5.90271 9.63787 6.85299 9.09606 7.66077C8.55424 8.46854 7.78515 9.09753 6.88596 9.46838C5.98678 9.83923 4.99785 9.93523 4.04412 9.74426C3.09039 9.5533 2.21467 9.08398 1.52759 8.39551C0.84052 7.70704 0.372928 6.83033 0.183898 5.87622C-0.00513223 4.92211 0.0928809 3.93334 0.465556 3.03491C0.838231 2.13648 1.46884 1.36867 2.27772 0.828491C3.08659 0.288316 4.03742 2.0091e-06 5.01008 0C5.65703 -1.3363e-06 6.29762 0.12761 6.89519 0.375488C7.49277 0.623366 8.03559 0.986656 8.49259 1.44458C8.94958 1.9025 9.31178 2.44611 9.55844 3.04419C9.80511 3.64227 9.9314 4.28311 9.93008 4.93005Z" fill="#2B9CB8"/>
<path id="Vector_16" d="M45.8102 4.93005C45.8102 5.90512 45.5211 6.85833 44.9793 7.66907C44.4376 8.4798 43.6677 9.1116 42.7668 9.48474C41.866 9.85788 40.8747 9.95561 39.9184 9.76538C38.9621 9.57516 38.0836 9.10561 37.3942 8.41614C36.7047 7.72667 36.2352 6.84817 36.0449 5.89185C35.8547 4.93552 35.9523 3.9443 36.3255 3.04346C36.6986 2.14262 37.3305 1.37265 38.1412 0.830933C38.952 0.289217 39.9051 0 40.8802 0C42.1877 0 43.4417 0.519415 44.3662 1.44397C45.2908 2.36852 45.8102 3.62254 45.8102 4.93005Z" fill="#2B9CB8"/>
<path id="Vector_17" d="M81.6801 4.93005C81.6781 5.90271 81.3879 6.85299 80.8461 7.66077C80.3042 8.46854 79.5351 9.09753 78.636 9.46838C77.7368 9.83923 76.7478 9.93523 75.7941 9.74426C74.8404 9.5533 73.9647 9.08398 73.2776 8.39551C72.5905 7.70704 72.1229 6.83033 71.9339 5.87622C71.7449 4.92211 71.8429 3.93334 72.2156 3.03491C72.5882 2.13648 73.2188 1.36867 74.0277 0.828491C74.8366 0.288316 75.7874 2.0091e-06 76.7601 0C77.407 -1.3363e-06 78.0476 0.12761 78.6452 0.375488C79.2428 0.623366 79.7856 0.986656 80.2426 1.44458C80.6996 1.9025 81.0618 2.44611 81.3084 3.04419C81.5551 3.64227 81.6814 4.28311 81.6801 4.93005Z" fill="#2B9CB8"/>
<path id="Vector_18" d="M117.56 4.93005C117.56 5.90512 117.271 6.85833 116.729 7.66907C116.188 8.4798 115.418 9.1116 114.517 9.48474C113.616 9.85788 112.625 9.95561 111.668 9.76538C110.712 9.57516 109.834 9.10561 109.144 8.41614C108.455 7.72667 107.985 6.84817 107.795 5.89185C107.605 4.93552 107.702 3.9443 108.075 3.04346C108.449 2.14262 109.081 1.37265 109.891 0.830933C110.702 0.289217 111.655 0 112.63 0C113.938 0 115.192 0.519415 116.116 1.44397C117.041 2.36852 117.56 3.62254 117.56 4.93005Z" fill="#2B9CB8"/>
</g>
</svg>
