<svg width="284" height="84" viewBox="0 0 284 84" fill="none" xmlns="http://www.w3.org/2000/svg">
<path d="M281 3L246 16.6196L262.001 21.9647L267.334 38L281 3Z" fill="#E4407D" stroke="white" stroke-width="3"/>
<rect x="2" y="32" width="250" height="50" rx="15" fill="#E4407D" stroke="white" stroke-width="3"/>
<path d="M51.8828 57.9688L45.8828 50H49.6328L53.3828 54.9922L57.1328 50H60.8828L54.8828 57.9453V65H51.8828V57.9688ZM57.0391 65L64.5391 49.25L72.0391 65H68.6641L64.5391 56.375L60.4141 65H57.0391ZM90.7891 65H72.7891V62H90.7891C91.2109 62 91.5625 61.8594 91.8438 61.5781C92.1406 61.2812 92.2891 60.9219 92.2891 60.5C92.2891 60.0781 92.1406 59.7266 91.8438 59.4453C91.5625 59.1484 91.2109 59 90.7891 59H84.7891C83.5391 59 82.4766 58.5625 81.6016 57.6875C80.7266 56.8125 80.2891 55.75 80.2891 54.5C80.2891 53.25 80.7266 52.1875 81.6016 51.3125C82.4766 50.4375 83.5391 50 84.7891 50H93.7891V53H84.7891C84.3672 53 84.0078 53.1484 83.7109 53.4453C83.4297 53.7266 83.2891 54.0781 83.2891 54.5C83.2891 54.9219 83.4297 55.2812 83.7109 55.5781C84.0078 55.8594 84.3672 56 84.7891 56H90.7891C92.0391 56 93.1016 56.4375 93.9766 57.3125C94.8516 58.1875 95.2891 59.25 95.2891 60.5C95.2891 61.75 94.8516 62.8125 93.9766 63.6875C93.1016 64.5625 92.0391 65 90.7891 65ZM111.836 59H103.586V56H111.836V59ZM111.836 50V53H99.8359V62H111.836V65H96.8359V50H111.836ZM124.867 65L119.922 56H125.172C125.594 56 125.945 55.8594 126.227 55.5781C126.523 55.2812 126.672 54.9219 126.672 54.5C126.672 54.0781 126.523 53.7266 126.227 53.4453C125.945 53.1484 125.594 53 125.172 53H117.672V65H114.672V50H125.172C126.422 50 127.484 50.4375 128.359 51.3125C129.234 52.1875 129.672 53.25 129.672 54.5C129.672 55.75 129.234 56.8125 128.359 57.6875C127.484 58.5625 126.422 59 125.172 59H124.516L127.844 65H124.867ZM150.672 57.9688L144.672 50H148.422L152.172 54.9922L155.922 50H159.672L153.672 57.9453V65H150.672V57.9688ZM161.828 50H164.828V65C164.828 66.25 164.391 67.3125 163.516 68.1875C162.641 69.0625 161.578 69.5 160.328 69.5C159.078 69.5 158.016 69.0625 157.141 68.1875C156.266 67.3125 155.828 66.25 155.828 65H158.828C158.828 65.4219 158.969 65.7734 159.25 66.0547C159.547 66.3516 159.906 66.5 160.328 66.5C160.75 66.5 161.102 66.3516 161.383 66.0547C161.68 65.7734 161.828 65.4219 161.828 65V50ZM171.812 50H174.812V65C174.812 66.25 174.375 67.3125 173.5 68.1875C172.625 69.0625 171.562 69.5 170.312 69.5C169.062 69.5 168 69.0625 167.125 68.1875C166.25 67.3125 165.812 66.25 165.812 65H168.812C168.812 65.4219 168.953 65.7734 169.234 66.0547C169.531 66.3516 169.891 66.5 170.312 66.5C170.734 66.5 171.086 66.3516 171.367 66.0547C171.664 65.7734 171.812 65.4219 171.812 65V50ZM184.047 65C181.969 65 180.195 64.2734 178.727 62.8203C177.273 61.3516 176.547 59.5781 176.547 57.5C176.547 55.4219 177.273 53.6562 178.727 52.2031C180.195 50.7344 181.969 50 184.047 50C186.125 50 187.891 50.7344 189.344 52.2031C190.812 53.6562 191.547 55.4219 191.547 57.5C191.547 59.5781 190.812 61.3516 189.344 62.8203C187.891 64.2734 186.125 65 184.047 65ZM184.047 62C185.297 62 186.359 61.5625 187.234 60.6875C188.109 59.8125 188.547 58.75 188.547 57.5C188.547 56.25 188.109 55.1875 187.234 54.3125C186.359 53.4375 185.297 53 184.047 53C182.797 53 181.734 53.4375 180.859 54.3125C179.984 55.1875 179.547 56.25 179.547 57.5C179.547 58.75 179.984 59.8125 180.859 60.6875C181.734 61.5625 182.797 62 184.047 62ZM193.117 57.5V50H196.117V57.5C196.117 58.75 196.555 59.8125 197.43 60.6875C198.305 61.5625 199.367 62 200.617 62C201.867 62 202.93 61.5625 203.805 60.6875C204.68 59.8125 205.117 58.75 205.117 57.5V50H208.117V57.5C208.117 59.5781 207.383 61.3516 205.914 62.8203C204.461 64.2734 202.695 65 200.617 65C198.539 65 196.766 64.2734 195.297 62.8203C193.844 61.3516 193.117 59.5781 193.117 57.5Z" fill="white"/>
</svg>
